g Wall.003_0_Short.003
v 0.03926432 0.38045692 -0.18783039
v 0.004704237 0.41231632 -0.15327018
v -0.010001063 0.3774948 -0.18781006
v -0.18781078 0.37749505 -0.010000408
v -0.15327084 0.41231656 0.004704833
v -0.18783128 0.38045716 0.039265156
v -0.06648815 -0.37803602 0.15933031
v -0.18719232 -0.37803602 0.038626492
v -0.22131407 -0.14673376 0.072747886
v -0.05908799 -0.14673352 0.23497313
v -0.014866948 -0.37837481 0.16048425
v -0.07155478 0.27311683 0.2225061
v -0.22131407 0.2731161 0.07274741
v -0.007409334 -0.14673352 0.23627943
v 0.16047502 -0.3783753 -0.014863193
v 0.23627734 -0.14673376 -0.007399082
v 0.15932047 -0.37803626 -0.06648654
v 0.23497224 -0.14673376 -0.05907774
v 0.038624167 -0.37803626 -0.18718988
v 0.07274604 -0.146734 -0.22131157
v 0.07274592 0.27311587 -0.22131199
v 0.2239399 0.2731161 -0.01968205
v 0.22250545 0.2731161 -0.071545005
v 0.12198281 0.38045645 -0.10510999
v 0.03926432 0.38045692 -0.18783039
v 0.004704237 0.41231632 -0.15327018
v 0.118227124 0.3861854 -0.054809332
v -0.019691825 0.27311683 0.22394174
v 0.069799066 0.41231632 -0.08817524
v -0.054811597 0.38618517 0.118228376
v -0.10511279 0.38045716 0.12198371
v -0.15327084 0.41231656 0.004704833
v -0.010001063 0.3774948 -0.18781006
v -0.08817601 0.41231656 0.06979984
v -0.18783128 0.38045716 0.039265156
v -0.18781078 0.37749505 -0.010000408
v -0.22042346 0.2731161 0.022611916
v -0.18781078 0.37749505 -0.010000408
v -0.22042346 0.2731161 0.022611916
v 0.022611022 0.27311587 -0.22042203
v 0.03926432 0.38045692 -0.18783039
v 0.07274592 0.27311587 -0.22131199
v 0.02266717 -0.146734 -0.22047788
v 0.07274604 -0.146734 -0.22131157
v -0.22047973 -0.14673376 0.02266854
v -0.011334419 -0.3773024 -0.18647629
v 0.038624167 -0.37803626 -0.18718988
v -0.18647814 -0.37730217 -0.01133281
v 0.008973002 -0.41212392 -0.15753883
v -0.18719232 -0.37803602 0.038626492
v -0.22131407 -0.14673376 0.072747886
v -0.22131407 0.2731161 0.07274741
v -0.15754128 -0.41212368 0.008975506
v -0.041136622 -0.41212368 0.12537974
v -0.06648815 -0.37803602 0.15933031
v -0.18719232 -0.37803602 0.038626492
v -0.18647814 -0.37730217 -0.01133281
v -0.014866948 -0.37837481 0.16048425
v 0.16047502 -0.3783753 -0.014863193
v 0.12537003 -0.41212368 -0.041134715
v 0.15932047 -0.37803626 -0.06648654
v 0.038624167 -0.37803626 -0.18718988
v -0.011334419 -0.3773024 -0.18647629
vt 0.16472 0.04211113
vt 0.16493031 0.04211113
vt 0.1648456 0.04232001
vt 0.1663644 0.042320013
vt 0.16627969 0.042111125
vt 0.16649 0.04211113
vt 0.16663845 0.036423244
vt 0.16766438 0.03612739
vt 0.16809495 0.037533864
vt 0.16680986 0.0378228
vt 0.16621463 0.03649808
vt 0.167088 0.040203467
vt 0.16836932 0.040054496
vt 0.16642186 0.0378777
vt 0.16475701 0.036626134
vt 0.16469814 0.037952285
vt 0.16434452 0.03660383
vt 0.1643176 0.037930194
vt 0.16337416 0.036407415
vt 0.16307813 0.03774772
vt 0.1629284 0.04012469
vt 0.16456524 0.040229976
vt 0.16413526 0.040214073
vt 0.16354688 0.040846143
vt 0.16287568 0.040795814
vt 0.16493031 0.04211113
vt 0.16486607 0.04113975
vt 0.16664478 0.040229976
vt 0.16493031 0.04155889
vt 0.16634391 0.041139748
vt 0.16773754 0.04084365
vt 0.16627969 0.042111125
vt 0.16484575 0.042530145
vt 0.16627967 0.04155889
vt 0.16844618 0.040763386
vt 0.16866457 0.040808104
vt 0.16858956 0.04011806
vt 0.16636425 0.04253014
vt 0.16664222 0.04316002
vt 0.16456778 0.04316002
vt 0.16463532 0.042512268
vt 0.16435 0.043160018
vt 0.16456729 0.045700014
vt 0.16435 0.045700014
vt 0.1666427 0.045700014
vt 0.16485375 0.04709005
vt 0.16463761 0.047094475
vt 0.16634755 0.047090054
vt 0.16488998 0.047509566
vt 0.16656367 0.04709447
vt 0.16686 0.045700014
vt 0.16686 0.04316002
vt 0.16631001 0.04750957
vt 0.16631001 0.048500404
vt 0.16652 0.048536997
vt 0.16652 0.047509566
vt 0.16634682 0.04729998
vt 0.16634768 0.04870999
vt 0.16485232 0.04870999
vt 0.16488999 0.0485004
vt 0.16468 0.048536994
vt 0.16468 0.047509573
vt 0.1648532 0.04729998
vn 0.6469813 0.40359148 -0.64693826
vn 2.7954578E-05 1 -2.6658177E-05
vn -0.707128 1.0937452E-05 -0.70708555
vn -0.70709664 0 -0.70711684
vn -2.5033953E-05 1 2.8118493E-05
vn -0.6469296 0.40361556 0.6469749
vn -0.6922307 -0.20422888 0.6921757
vn -0.6921829 -0.20424803 0.69221777
vn -0.7033724 -0.10266733 0.7033681
vn -0.7038732 -0.09537414 0.70389354
vn 0.6853324 -0.2463544 0.6852948
vn -0.69945836 0.14651543 0.6994936
vn -0.6919274 0.20620391 0.69189334
vn 0.70400333 -0.093683824 0.7039906
vn 0.6853332 -0.24632414 0.68530494
vn 0.703982 -0.09363803 0.7040179
vn 0.6922366 -0.20424558 -0.69216496
vn 0.7039073 -0.095384754 -0.703858
vn 0.69223535 -0.20426089 -0.6921616
vn 0.70338 -0.10267814 -0.70335895
vn 0.6919452 0.20619819 -0.6918773
vn 0.6662356 0.33499938 0.6662622
vn 0.69949836 0.14653693 -0.6994491
vn 0.64697385 0.40360752 -0.6469357
vn 0.6469813 0.40359148 -0.64693826
vn 2.7954578E-05 1 -2.6658177E-05
vn 0.53061795 0.66095644 0.5306423
vn 0.6662451 0.33499756 0.66625375
vn -0 1 2.6166439E-05
vn 0.53063244 0.6609303 0.5306604
vn -0.64692557 0.40360776 0.6469838
vn -2.5033953E-05 1 2.8118493E-05
vn -0.707128 1.0937452E-05 -0.70708555
vn 1.886487E-05 1 -1.668185E-05
vn -0.6469296 0.40361556 0.6469749
vn -0.70709664 0 -0.70711684
vn -0.7071173 -1.15484E-05 -0.70709616
vn -0.70709664 0 -0.70711684
vn -0.7071173 -1.15484E-05 -0.70709616
vn -0.7070962 1.22860065E-05 -0.70711726
vn 0.6469813 0.40359148 -0.64693826
vn 0.6919452 0.20619819 -0.6918773
vn -0.70711875 -1.9453464E-05 -0.7070947
vn 0.70338 -0.10267814 -0.70335895
vn -0.70709085 0 -0.7071227
vn -0.7070871 0 -0.7071264
vn 0.69223535 -0.20426089 -0.6921616
vn -0.70712835 1.3411047E-05 -0.7070852
vn -0 -1 2.4139881E-05
vn -0.6921829 -0.20424803 0.69221777
vn -0.7033724 -0.10266733 0.7033681
vn -0.6919274 0.20620391 0.69189334
vn 1.8537046E-05 -1 2.2158029E-05
vn -0 -1 1.6301869E-05
vn -0.6922307 -0.20422888 0.6921757
vn -0.6921829 -0.20424803 0.69221777
vn -0.70712835 1.3411047E-05 -0.7070852
vn 0.6853324 -0.2463544 0.6852948
vn 0.6853332 -0.24632414 0.68530494
vn 1.9147994E-05 -1 -3.7357215E-05
vn 0.6922366 -0.20424558 -0.69216496
vn 0.69223535 -0.20426089 -0.6921616
vn -0.7070871 0 -0.7071264
g Wall.003_0_Short.003_0
f 3/3/3 2/2/2 1/1/1
f 6/6/6 5/5/5 4/4/4
f 9/9/9 8/8/8 7/7/7
f 10/10/10 9/9/9 7/7/7
f 10/10/10 7/7/7 11/11/11
f 10/10/10 12/12/12 9/9/9
f 12/12/12 13/13/13 9/9/9
f 14/14/14 10/10/10 11/11/11
f 12/12/12 10/10/10 14/14/14
f 14/14/14 11/11/11 15/15/15
f 16/16/16 14/14/14 15/15/15
f 16/16/16 15/15/15 17/17/17
f 18/18/18 16/16/16 17/17/17
f 18/18/18 17/17/17 19/19/19
f 20/20/20 18/18/18 19/19/19
f 18/18/18 20/20/20 21/21/21
f 14/14/14 16/16/16 22/22/22
f 22/22/22 16/16/16 18/18/18
f 23/23/23 18/18/18 21/21/21
f 23/23/23 22/22/22 18/18/18
f 23/23/23 21/21/21 24/24/24
f 21/21/21 25/25/25 24/24/24
f 25/25/25 26/26/26 24/24/24
f 24/24/24 27/27/27 23/23/23
f 27/27/27 22/22/22 23/23/23
f 28/28/28 14/14/14 22/22/22
f 28/28/28 12/12/12 14/14/14
f 26/26/26 29/29/29 24/24/24
f 27/27/27 24/24/24 29/29/29
f 22/22/22 27/27/27 30/30/30
f 28/28/28 22/22/22 30/30/30
f 30/30/30 27/27/27 29/29/29
f 12/12/12 28/28/28 31/31/31
f 28/28/28 30/30/30 31/31/31
f 29/29/29 26/26/26 32/32/32
f 32/32/32 26/26/26 33/33/33
f 34/34/34 30/30/30 29/29/29
f 30/30/30 34/34/34 31/31/31
f 34/34/34 29/29/29 32/32/32
f 12/12/12 31/31/31 35/35/35
f 31/31/31 34/34/34 35/35/35
f 34/34/34 32/32/32 35/35/35
f 13/13/13 12/12/12 35/35/35
f 13/13/13 35/35/35 36/36/36
f 37/37/37 13/13/13 36/36/36
f 38/38/38 32/32/32 33/33/33
f 39/39/39 38/38/38 33/33/33
f 40/40/40 39/39/39 33/33/33
f 33/33/33 41/41/41 40/40/40
f 41/41/41 42/42/42 40/40/40
f 43/43/43 40/40/40 42/42/42
f 44/44/44 43/43/43 42/42/42
f 45/45/45 39/39/39 40/40/40
f 43/43/43 45/45/45 40/40/40
f 43/43/43 44/44/44 46/46/46
f 44/44/44 47/47/47 46/46/46
f 43/43/43 46/46/46 48/48/48
f 45/45/45 43/43/43 48/48/48
f 48/48/48 46/46/46 49/49/49
f 48/48/48 50/50/50 45/45/45
f 50/50/50 51/51/51 45/45/45
f 39/39/39 45/45/45 51/51/51
f 52/52/52 39/39/39 51/51/51
f 53/53/53 48/48/48 49/49/49
f 54/54/54 53/53/53 49/49/49
f 54/54/54 55/55/55 53/53/53
f 55/55/55 56/56/56 53/53/53
f 53/53/53 56/56/56 57/57/57
f 58/58/58 55/55/55 54/54/54
f 59/59/59 58/58/58 54/54/54
f 60/60/60 59/59/59 54/54/54
f 60/60/60 54/54/54 49/49/49
f 59/59/59 60/60/60 61/61/61
f 61/61/61 60/60/60 62/62/62
f 60/60/60 49/49/49 62/62/62
f 62/62/62 49/49/49 63/63/63
